<mxfile host="app.diagrams.net" modified="2020-09-02T14:45:45.515Z" agent="5.0 (Windows NT 10.0; Win64; x64) AppleWebKit/537.36 (KHTML, like Gecko) Chrome/85.0.4183.83 Safari/537.36" etag="N99__Hfac-C-05eIlRy1" version="13.6.5" type="github">
  <diagram id="eG4wKLXjMvoFwgsAKZnU" name="Page-1">
    <mxGraphModel dx="1422" dy="762" grid="1" gridSize="10" guides="1" tooltips="1" connect="1" arrows="1" fold="1" page="1" pageScale="1" pageWidth="827" pageHeight="1169" math="0" shadow="0">
      <root>
        <mxCell id="0" />
        <mxCell id="1" parent="0" />
        <mxCell id="pfXjBUfwmdrkuhUQWS0M-1" value="ELM" style="rounded=1;whiteSpace=wrap;html=1;" vertex="1" parent="1">
          <mxGeometry x="40" y="200" width="120" height="60" as="geometry" />
        </mxCell>
        <mxCell id="pfXjBUfwmdrkuhUQWS0M-4" value="Grants" style="rounded=1;whiteSpace=wrap;html=1;" vertex="1" parent="1">
          <mxGeometry x="200" y="200" width="120" height="60" as="geometry" />
        </mxCell>
        <mxCell id="pfXjBUfwmdrkuhUQWS0M-5" value="R&amp;amp;E" style="rounded=1;whiteSpace=wrap;html=1;" vertex="1" parent="1">
          <mxGeometry x="360" y="200" width="120" height="60" as="geometry" />
        </mxCell>
        <mxCell id="pfXjBUfwmdrkuhUQWS0M-6" value="SFI" style="rounded=1;whiteSpace=wrap;html=1;fillColor=#dae8fc;strokeColor=#6c8ebf;" vertex="1" parent="1">
          <mxGeometry x="520" y="200" width="120" height="60" as="geometry" />
        </mxCell>
        <mxCell id="pfXjBUfwmdrkuhUQWS0M-7" value="ELM" style="rounded=1;whiteSpace=wrap;html=1;fillColor=#dae8fc;strokeColor=#6c8ebf;" vertex="1" parent="1">
          <mxGeometry x="40" y="200" width="120" height="60" as="geometry" />
        </mxCell>
        <mxCell id="pfXjBUfwmdrkuhUQWS0M-8" value="Grants" style="rounded=1;whiteSpace=wrap;html=1;fillColor=#dae8fc;strokeColor=#6c8ebf;" vertex="1" parent="1">
          <mxGeometry x="200" y="200" width="120" height="60" as="geometry" />
        </mxCell>
        <mxCell id="pfXjBUfwmdrkuhUQWS0M-9" value="R&amp;amp;E" style="rounded=1;whiteSpace=wrap;html=1;fillColor=#dae8fc;strokeColor=#6c8ebf;" vertex="1" parent="1">
          <mxGeometry x="360" y="200" width="120" height="60" as="geometry" />
        </mxCell>
        <mxCell id="pfXjBUfwmdrkuhUQWS0M-11" style="edgeStyle=orthogonalEdgeStyle;rounded=0;orthogonalLoop=1;jettySize=auto;html=1;entryX=0.5;entryY=0;entryDx=0;entryDy=0;curved=1;" edge="1" parent="1" source="pfXjBUfwmdrkuhUQWS0M-10" target="pfXjBUfwmdrkuhUQWS0M-8">
          <mxGeometry relative="1" as="geometry" />
        </mxCell>
        <mxCell id="pfXjBUfwmdrkuhUQWS0M-12" style="edgeStyle=orthogonalEdgeStyle;curved=1;rounded=0;orthogonalLoop=1;jettySize=auto;html=1;entryX=0.5;entryY=0;entryDx=0;entryDy=0;" edge="1" parent="1" source="pfXjBUfwmdrkuhUQWS0M-10" target="pfXjBUfwmdrkuhUQWS0M-9">
          <mxGeometry relative="1" as="geometry" />
        </mxCell>
        <mxCell id="pfXjBUfwmdrkuhUQWS0M-13" style="edgeStyle=orthogonalEdgeStyle;curved=1;rounded=0;orthogonalLoop=1;jettySize=auto;html=1;entryX=0.5;entryY=0;entryDx=0;entryDy=0;" edge="1" parent="1" source="pfXjBUfwmdrkuhUQWS0M-10" target="pfXjBUfwmdrkuhUQWS0M-6">
          <mxGeometry relative="1" as="geometry" />
        </mxCell>
        <mxCell id="pfXjBUfwmdrkuhUQWS0M-14" style="edgeStyle=orthogonalEdgeStyle;curved=1;rounded=0;orthogonalLoop=1;jettySize=auto;html=1;" edge="1" parent="1" source="pfXjBUfwmdrkuhUQWS0M-10" target="pfXjBUfwmdrkuhUQWS0M-7">
          <mxGeometry relative="1" as="geometry" />
        </mxCell>
        <mxCell id="pfXjBUfwmdrkuhUQWS0M-10" value="Platform" style="rounded=1;whiteSpace=wrap;html=1;fillColor=#dae8fc;strokeColor=#6c8ebf;" vertex="1" parent="1">
          <mxGeometry x="280" y="60" width="120" height="60" as="geometry" />
        </mxCell>
      </root>
    </mxGraphModel>
  </diagram>
</mxfile>
